<svg width="48" height="48" viewBox="0 0 48 48" fill="none" xmlns="http://www.w3.org/2000/svg">
<g clip-path="url(#clip0_2430_6037)">
<rect x="8" y="10" width="32" height="28" fill="#0F62FE"/>
<path d="M20.64 35.04L37.56 18.12L34.2 14.76L20.64 28.32L13.8 21.48L10.44 24.84L20.64 35.04ZM24 48C20.68 48 17.56 47.37 14.64 46.11C11.72 44.85 9.18 43.14 7.02 40.98C4.86 38.82 3.15 36.28 1.89 33.36C0.63 30.44 0 27.32 0 24C0 20.68 0.63 17.56 1.89 14.64C3.15 11.72 4.86 9.18 7.02 7.02C9.18 4.86 11.72 3.15 14.64 1.89C17.56 0.63 20.68 0 24 0C27.32 0 30.44 0.63 33.36 1.89C36.28 3.15 38.82 4.86 40.98 7.02C43.14 9.18 44.85 11.72 46.11 14.64C47.37 17.56 48 20.68 48 24C48 27.32 47.37 30.44 46.11 33.36C44.85 36.28 43.14 38.82 40.98 40.98C38.82 43.14 36.28 44.85 33.36 46.11C30.44 47.37 27.32 48 24 48Z" fill="#DDE1E6"/>
</g>
<defs>
<clipPath id="clip0_2430_6037">
<rect width="48" height="48" fill="white"/>
</clipPath>
</defs>
</svg>
